<?xml version="1.0" encoding="utf-8"?>
<!-- Generator: Adobe Illustrator 28.0.0, SVG Export Plug-In . SVG Version: 6.00 Build 0)  -->
<svg version="1.1" id="Layer_1" xmlns="http://www.w3.org/2000/svg" xmlns:xlink="http://www.w3.org/1999/xlink" x="0px" y="0px"
	 viewBox="0 0 314.18 108.87" style="enable-background:new 0 0 314.18 108.87;" xml:space="preserve">
<style type="text/css">
	.st0{fill:none;stroke:#279B47;stroke-width:3;stroke-linecap:round;stroke-linejoin:round;stroke-miterlimit:10;}
	.st1{fill:#6D6E71;}
</style>
<polyline class="st0" points="83.88,87.04 52.07,21.5 21.5,36.34 38.58,39.33 31.77,54.36 60.59,39.94 "/>
<polyline class="st0" points="49.04,87.37 80.7,21.76 111.3,36.53 94.22,39.56 101.07,54.58 72.22,40.22 "/>
<g>
	<path class="st1" d="M148.03,48.65h-9.12l-3.71,24.86h-2.18l3.71-24.86h-9.4l0.28-1.87h20.71L148.03,48.65z"/>
	<path class="st1" d="M158.47,55.53l-1.54-0.11c-1.33,0-2.52,0.4-3.54,1.21c-1.03,0.81-1.84,1.9-2.44,3.29l-2.04,13.59h-2.2
		l2.97-19.86h1.93l-0.22,3.3l-0.02,0.11c0.75-1.2,1.65-2.13,2.72-2.79c1.06-0.66,2.27-0.99,3.62-0.99c0.26,0,0.51,0.02,0.76,0.06
		c0.25,0.04,0.45,0.09,0.6,0.14L158.47,55.53z"/>
	<path class="st1" d="M172.11,73.5c-0.03-0.76-0.04-1.38-0.04-1.85s0.04-0.97,0.11-1.47c-0.84,1.06-1.94,1.95-3.28,2.65
		c-1.34,0.7-2.81,1.06-4.4,1.06c-1.87,0-3.29-0.52-4.24-1.57c-0.96-1.05-1.3-2.44-1.03-4.19c0.27-1.85,1.26-3.3,2.96-4.37
		c1.71-1.06,3.82-1.6,6.33-1.6h4.88l0.37-2.46c0.21-1.48-0.07-2.61-0.83-3.39c-0.77-0.78-1.98-1.17-3.64-1.17
		c-1.44,0-2.7,0.37-3.76,1.11c-1.06,0.74-1.68,1.66-1.85,2.76h-2.02l-0.04-0.11c0.16-1.54,0.99-2.87,2.51-3.97
		c1.51-1.11,3.36-1.66,5.55-1.66c2.1,0,3.75,0.56,4.95,1.69s1.64,2.72,1.33,4.77l-1.47,9.77c-0.11,0.72-0.18,1.41-0.2,2.06
		c-0.03,0.65,0.01,1.3,0.11,1.95H172.11z M165.05,71.94c1.62,0,3.11-0.4,4.5-1.21c1.38-0.81,2.39-1.83,3.03-3.07l0.59-3.82h-4.9
		c-1.71,0-3.23,0.43-4.56,1.29c-1.33,0.86-2.08,1.88-2.27,3.07c-0.17,1.16,0.06,2.08,0.69,2.74S163.72,71.94,165.05,71.94z"/>
	<path class="st1" d="M187.24,72.03c1.36,0,2.65-0.42,3.88-1.26c1.23-0.84,1.96-1.99,2.19-3.46h1.95l0.04,0.11
		c-0.25,1.92-1.2,3.48-2.85,4.67c-1.66,1.19-3.49,1.79-5.48,1.79c-2.55,0-4.44-0.94-5.69-2.82c-1.25-1.88-1.65-4.25-1.21-7.11
		l0.11-0.77c0.44-2.99,1.53-5.39,3.26-7.2c1.73-1.81,3.93-2.72,6.6-2.72c2.06,0,3.71,0.65,4.97,1.95c1.26,1.3,1.71,2.99,1.36,5.07
		l-0.04,0.09h-1.98c0.25-1.65-0.08-2.94-0.96-3.86c-0.89-0.92-2.1-1.38-3.62-1.38c-2,0-3.64,0.78-4.93,2.33
		c-1.29,1.55-2.11,3.46-2.45,5.71l-0.11,0.77c-0.37,2.41-0.16,4.36,0.62,5.85C183.67,71.29,185.12,72.03,187.24,72.03z"/>
	<path class="st1" d="M205.09,63.83h-2.31l-1.45,9.67h-2.2l4.3-28.64h2.2l-2.57,17.07h2.11l8.85-8.3h2.55l0.04,0.11l-9.49,9
		l7.27,10.76h-2.64L205.09,63.83z"/>
	<path class="st1" d="M217.81,63.74c0.49-3.29,1.54-5.86,3.14-7.7c1.6-1.84,3.62-2.76,6.04-2.76c1.32,0,2.45,0.3,3.4,0.89
		c0.94,0.59,1.68,1.44,2.22,2.52l1.76-11.82h2.2l-4.3,28.64h-1.8l0.13-2.88c-0.82,1.05-1.8,1.86-2.93,2.42
		c-1.13,0.56-2.4,0.84-3.81,0.84c-2.29,0-3.99-0.9-5.11-2.69c-1.12-1.79-1.45-4.15-1-7.08L217.81,63.74z M219.96,64.12
		c-0.38,2.49-0.2,4.42,0.55,5.79c0.75,1.38,2.09,2.06,4.04,2.06c1.36,0,2.57-0.32,3.63-0.97c1.07-0.65,1.95-1.53,2.66-2.64
		l1.41-9.34c-0.33-1.14-0.9-2.06-1.72-2.77c-0.81-0.71-1.96-1.06-3.42-1.06c-1.86,0-3.42,0.8-4.67,2.41
		c-1.25,1.61-2.07,3.66-2.43,6.14L219.96,64.12z"/>
	<path class="st1" d="M250.71,73.5c-0.02-0.76-0.04-1.38-0.04-1.85s0.04-0.97,0.11-1.47c-0.84,1.06-1.94,1.95-3.28,2.65
		c-1.34,0.7-2.81,1.06-4.4,1.06c-1.87,0-3.29-0.52-4.24-1.57c-0.95-1.05-1.3-2.44-1.03-4.19c0.27-1.85,1.26-3.3,2.96-4.37
		c1.71-1.06,3.82-1.6,6.32-1.6h4.88l0.37-2.46c0.21-1.48-0.07-2.61-0.84-3.39c-0.76-0.78-1.98-1.17-3.64-1.17
		c-1.44,0-2.7,0.37-3.76,1.11c-1.07,0.74-1.68,1.66-1.85,2.76h-2.02l-0.04-0.11c0.16-1.54,1-2.87,2.51-3.97
		c1.51-1.11,3.36-1.66,5.55-1.66c2.11,0,3.75,0.56,4.95,1.69s1.64,2.72,1.33,4.77l-1.47,9.77c-0.11,0.72-0.18,1.41-0.2,2.06
		s0.01,1.3,0.11,1.95H250.71z M243.64,71.94c1.62,0,3.11-0.4,4.5-1.21c1.38-0.81,2.39-1.83,3.03-3.07l0.59-3.82h-4.9
		c-1.71,0-3.23,0.43-4.56,1.29c-1.33,0.86-2.08,1.88-2.27,3.07c-0.17,1.16,0.06,2.08,0.69,2.74
		C241.34,71.61,242.32,71.94,243.64,71.94z"/>
	<path class="st1" d="M264.51,68.12l0.35,2.37l0.11,0.02l8.52-16.87h2.46l-12.08,23.04c-0.72,1.35-1.56,2.49-2.52,3.43
		s-2.23,1.41-3.81,1.41c-0.25,0-0.54-0.03-0.9-0.08c-0.35-0.05-0.62-0.11-0.79-0.17l0.53-1.84c0.15,0.02,0.38,0.05,0.7,0.08
		c0.32,0.03,0.55,0.05,0.7,0.05c0.92,0,1.73-0.35,2.43-1.05c0.7-0.7,1.33-1.56,1.86-2.59l1.45-2.68l-4.74-19.61h2.44L264.51,68.12z"
		/>
	<path class="st1" d="M289.17,68.42c0.12-0.97-0.15-1.79-0.81-2.46c-0.66-0.67-1.96-1.23-3.91-1.67c-2.28-0.49-3.93-1.16-4.96-2.01
		s-1.43-2.04-1.21-3.57c0.22-1.58,1.03-2.88,2.44-3.9c1.41-1.02,3.18-1.53,5.31-1.53c2.13,0,3.8,0.57,5,1.7
		c1.21,1.13,1.67,2.51,1.39,4.12l-0.04,0.11h-2.06c0.16-1.13-0.17-2.08-0.98-2.87c-0.81-0.79-2-1.18-3.57-1.18
		c-1.53,0-2.77,0.35-3.71,1.06c-0.94,0.71-1.47,1.52-1.6,2.42c-0.12,0.94,0.12,1.7,0.72,2.28s1.91,1.09,3.93,1.54
		c2.25,0.51,3.91,1.23,4.97,2.15c1.07,0.92,1.49,2.15,1.29,3.71c-0.26,1.71-1.12,3.07-2.58,4.08c-1.46,1-3.31,1.51-5.54,1.51
		c-2.31,0-4.1-0.58-5.36-1.74c-1.26-1.16-1.74-2.53-1.45-4.09l0.04-0.11h2.02c-0.11,1.43,0.33,2.47,1.33,3.12
		c1,0.65,2.22,0.97,3.68,0.97c1.52,0,2.8-0.36,3.86-1.07S289.02,69.4,289.17,68.42z"/>
</g>
</svg>

